<svg xmlns="http://www.w3.org/2000/svg" xml:space="preserve" width="520.901" height="364.609" viewBox="37.19 238.641 520.901 364.609"><path fill="#FFF" d="M547.1 295.564a65.108 65.108 0 0 0-45.948-45.948C460.598 238.64 297.64 238.64 297.64 238.64s-162.958 0-203.511 10.976a65.106 65.106 0 0 0-45.948 45.948 669.604 669.604 0 0 0-10.976 125.381 669.6 669.6 0 0 0 10.976 125.38 65.111 65.111 0 0 0 45.948 45.949C134.682 603.25 297.64 603.25 297.64 603.25s162.958 0 203.512-10.975a65.113 65.113 0 0 0 45.948-45.949 669.769 669.769 0 0 0 10.976-125.38A669.775 669.775 0 0 0 547.1 295.564M245.553 499.076V342.814l135.24 78.131-135.24 78.131z"/></svg>